<svg width="18" height="18" viewBox="0 0 18 18" fill="none" xmlns="http://www.w3.org/2000/svg">
<g clip-path="url(#clip0)">
<path d="M3.2998 9.14066H4.49981V8.00732H3.89981H3.2998V9.14066Z" fill="#FBB040"/>
<path d="M13.5 9.14066H14.7V8.00732H14.1H13.5V9.14066Z" fill="#FBB040"/>
<path d="M17.4677 5.93458C17.1829 5.63092 16.774 5.45709 16.3445 5.45716H14.3999V4.60716C14.3974 2.57389 12.6528 0.926166 10.4999 0.923828H7.49991C5.34704 0.926166 3.60239 2.57389 3.59991 4.60716V5.45716H1.65531C0.826898 5.45713 0.155311 6.0914 0.155273 6.87379C0.155273 6.93064 0.158873 6.98741 0.166111 7.04383L1.24611 15.6818C1.41205 16.9605 2.56079 17.922 3.92481 17.9238H14.075C15.4397 17.9225 16.5893 16.9606 16.7552 15.6812L17.8337 7.04524C17.8855 6.64263 17.7523 6.23835 17.4677 5.93458ZM4.19991 4.60716C4.20205 2.88673 5.67827 1.49251 7.49991 1.49049H10.4999C12.3215 1.49251 13.7978 2.88673 13.7999 4.60716V5.45716H4.19991V4.60716ZM17.2379 6.97781L16.1594 15.6138C16.0301 16.6085 15.1361 17.3562 14.075 17.3572H3.92481C2.86412 17.3564 1.97031 16.6092 1.84071 15.6149L0.761911 6.97668C0.701761 6.5107 1.05299 6.08687 1.54641 6.03006C1.58256 6.02592 1.61894 6.02383 1.65531 6.02383H3.59991V7.72383H3.29991C3.13424 7.72383 2.99991 7.85069 2.99991 8.00716V9.14049C2.99991 9.29697 3.13424 9.42383 3.29991 9.42383H4.49991C4.66559 9.42383 4.79991 9.29697 4.79991 9.14049V8.00716C4.79991 7.85069 4.66559 7.72383 4.49991 7.72383H4.19991V6.02383H13.7999V7.72383H13.4999C13.3342 7.72383 13.1999 7.85069 13.1999 8.00716V9.14049C13.1999 9.29697 13.3342 9.42383 13.4999 9.42383H14.6999C14.8656 9.42383 14.9999 9.29697 14.9999 9.14049V8.00716C14.9999 7.85069 14.8656 7.72383 14.6999 7.72383H14.3999V6.02383H16.3445C16.8416 6.02376 17.2446 6.40424 17.2447 6.87369C17.2447 6.9085 17.2424 6.94324 17.2379 6.97781ZM4.19991 8.29049V8.85716H3.59991V8.29049H4.19991ZM14.3999 8.29049V8.85716H13.7999V8.29049H14.3999Z" fill="#8D8A8A"/>
</g>
<defs>
<clipPath id="clip0">
<rect y="0.923828" width="18" height="17" fill="white"/>
</clipPath>
</defs>
</svg>
