<svg width="22" height="22" viewBox="0 0 22 22" fill="none" xmlns="http://www.w3.org/2000/svg">
<path d="M21.3493 7.11358C21.0013 6.73847 20.5015 6.52374 19.9765 6.52383H17.5998V5.47383C17.5968 2.96214 15.4644 0.926716 12.8331 0.923828H9.16648C6.53518 0.926716 4.40283 2.96214 4.39981 5.47383V6.52383H2.02308C1.01057 6.52378 0.189743 7.3073 0.189697 8.27378C0.189697 8.344 0.194097 8.41413 0.202943 8.48383L1.52294 19.1543C1.72576 20.7338 3.12977 21.9215 4.79691 21.9238H17.2027C18.8707 21.9222 20.2758 20.734 20.4785 19.1536L21.7967 8.48558C21.86 7.98823 21.6972 7.48882 21.3493 7.11358ZM5.13314 5.47383C5.13576 3.34858 6.94003 1.62632 9.16648 1.62383H12.8331C15.0596 1.62632 16.8639 3.34858 16.8665 5.47383V6.52383H5.13314V5.47383ZM21.0685 8.40228L19.7503 19.0703C19.5922 20.299 18.4996 21.2226 17.2027 21.2238H4.79691C3.50051 21.2229 2.40808 20.2999 2.24968 19.0717L0.931143 8.40088C0.857626 7.82526 1.2869 7.3017 1.88998 7.23153C1.93416 7.22641 1.97862 7.22383 2.02308 7.22383H4.39981V9.32383H4.03314C3.83065 9.32383 3.66648 9.48054 3.66648 9.67383V11.0738C3.66648 11.2671 3.83065 11.4238 4.03314 11.4238H5.49981C5.7023 11.4238 5.86648 11.2671 5.86648 11.0738V9.67383C5.86648 9.48054 5.7023 9.32383 5.49981 9.32383H5.13314V7.22383H16.8665V9.32383H16.4998C16.2973 9.32383 16.1331 9.48054 16.1331 9.67383V11.0738C16.1331 11.2671 16.2973 11.4238 16.4998 11.4238H17.9665C18.169 11.4238 18.3331 11.2671 18.3331 11.0738V9.67383C18.3331 9.48054 18.169 9.32383 17.9665 9.32383H17.5998V7.22383H19.9765C20.5841 7.22374 21.0766 7.69375 21.0767 8.27365C21.0768 8.31666 21.074 8.35958 21.0685 8.40228ZM5.13314 10.0238V10.7238H4.39981V10.0238H5.13314ZM17.5998 10.0238V10.7238H16.8665V10.0238H17.5998Z" fill="white"/>
</svg>
