<svg width="10" height="19" viewBox="0 0 10 19" fill="none" xmlns="http://www.w3.org/2000/svg">
<path d="M6.48832 19.0008V10.5209C6.68762 10.5209 6.87569 10.5194 7.06376 10.5209C7.74166 10.5251 8.41955 10.5209 9.09744 10.5379C9.32762 10.5436 9.41464 10.4684 9.44271 10.2343C9.55218 9.27518 9.67429 8.3161 9.80762 7.35986C9.8399 7.12718 9.76551 7.06618 9.55078 7.0676C8.6385 7.07327 7.72481 7.07043 6.81253 7.06902C6.71148 7.06902 6.60903 7.0605 6.4785 7.05483C6.4785 6.67602 6.47429 6.31849 6.4799 5.96097C6.48832 5.45163 6.47569 4.94088 6.52201 4.43438C6.58095 3.7775 6.96692 3.39301 7.61955 3.34194C8.20762 3.29512 8.7999 3.30505 9.38937 3.29086C9.5199 3.28803 9.65043 3.28519 9.78095 3.29228C9.93253 3.3008 10.0013 3.24405 10.0013 3.08089C9.99709 2.17572 9.9985 1.27055 10.0013 0.365386C10.0013 0.209323 9.95358 0.115685 9.78376 0.107172C8.65394 0.0475846 7.52832 -0.0857786 6.3999 0.0844723C4.5585 0.359711 3.22096 1.6976 3.02868 3.57745C2.92201 4.62166 2.9571 5.68289 2.95429 6.73561C2.95429 7.00943 2.87569 7.07895 2.62025 7.07469C1.8385 7.0605 1.05534 7.07469 0.273589 7.06618C0.0700808 7.06334 -0.00149813 7.1286 -9.4617e-05 7.33716C0.00832643 8.31185 0.00692292 9.28795 -9.4617e-05 10.2641C-0.00149813 10.4669 0.0504317 10.535 0.266572 10.5308C1.05675 10.5138 1.84833 10.5279 2.6399 10.5194C2.86306 10.5166 2.95429 10.5705 2.95429 10.8301C2.94306 13.5456 2.94587 16.2611 2.95289 18.9766C2.95289 18.9852 2.95289 18.9951 2.95289 19.0036H6.48832V19.0008Z" fill="white"/>
</svg>
