<svg width="23" height="22" viewBox="0 0 23 22" fill="none" xmlns="http://www.w3.org/2000/svg">
<rect x="0.5" y="0.5" width="22" height="21" rx="4.5" stroke="white"/>
<path d="M11.5 17C10.4122 17 9.34884 16.6774 8.44437 16.0731C7.5399 15.4687 6.83495 14.6098 6.41867 13.6048C6.00238 12.5998 5.89346 11.4939 6.10568 10.427C6.3179 9.36011 6.84173 8.3801 7.61092 7.61092C8.3801 6.84173 9.36011 6.3179 10.427 6.10568C11.4939 5.89346 12.5998 6.00238 13.6048 6.41867C14.6098 6.83495 15.4687 7.5399 16.0731 8.44437C16.6774 9.34884 17 10.4122 17 11.5C16.9991 12.9584 16.4194 14.3569 15.3881 15.3881C14.3569 16.4194 12.9584 16.9991 11.5 17ZM11.5 7.65464C10.7395 7.65464 9.996 7.88016 9.36363 8.3027C8.73126 8.72523 8.23839 9.32579 7.94735 10.0284C7.6563 10.7311 7.58015 11.5043 7.72852 12.2502C7.8769 12.9961 8.24313 13.6813 8.78092 14.2191C9.3187 14.7569 10.0039 15.1231 10.7498 15.2715C11.4957 15.4199 12.2689 15.3437 12.9716 15.0527C13.6742 14.7616 14.2748 14.2687 14.6973 13.6364C15.1198 13.004 15.3454 12.2605 15.3454 11.5C15.3445 10.4804 14.9391 9.50284 14.2181 8.78188C13.4972 8.06093 12.5196 7.65551 11.5 7.65464Z" fill="white"/>
<path d="M17 7C17.5523 7 18 6.55228 18 6C18 5.44772 17.5523 5 17 5C16.4477 5 16 5.44772 16 6C16 6.55228 16.4477 7 17 7Z" fill="white"/>
</svg>
