<svg width="11" height="19" viewBox="0 0 11 19" fill="none" xmlns="http://www.w3.org/2000/svg">
<path d="M6.40593 13.0204C6.59239 13.1842 6.78661 13.3402 6.96197 13.5152C7.90977 14.4568 8.85314 15.4029 9.79984 16.3468C10.2982 16.8438 10.3204 17.4656 9.84978 17.9437C9.2993 18.5042 8.70553 18.5176 8.17059 17.9805C7.2927 17.099 6.41481 16.2175 5.52472 15.3227C5.4659 15.3751 5.4093 15.4196 5.35824 15.4698C4.52031 16.3089 3.68349 17.1492 2.84667 17.9894C2.47709 18.3605 2.03648 18.4663 1.62029 18.2836C1.13418 18.0696 0.812326 17.5682 0.845621 17.0734C0.865598 16.7814 1.01432 16.5585 1.21631 16.3568C2.29175 15.2826 3.36385 14.205 4.43707 13.1285C4.48258 13.0828 4.52475 13.0327 4.59023 12.9625C4.16294 12.8878 3.7634 12.8254 3.36718 12.7485C2.23514 12.529 1.24516 12.0219 0.405013 11.2296C-0.0866472 10.7649 -0.126602 10.2601 0.262953 9.70405C0.544854 9.30065 1.00988 9.14575 1.50376 9.32182C1.70464 9.39314 1.89664 9.50458 2.07089 9.62939C3.24954 10.4763 4.57691 10.7861 5.9964 10.6635C7.10403 10.5677 8.15061 10.2534 9.05069 9.54581C9.2205 9.41209 9.44912 9.3274 9.66332 9.28616C10.2005 9.1803 10.6 9.39649 10.8364 9.87455C11.1017 10.4106 11.0517 10.7872 10.6322 11.1917C9.78652 12.0052 8.78211 12.5201 7.63453 12.7485C7.24498 12.8254 6.85209 12.8878 6.46143 12.9558C6.44145 12.977 6.42369 12.9981 6.40593 13.0204Z" fill="white"/>
<path d="M10.1305 4.65486C10.1083 7.27362 8.05068 9.31625 5.45698 9.29397C2.88658 9.27168 0.85113 7.19896 0.867777 4.62031C0.884425 2.02718 2.96649 -0.0199125 5.56685 0.000146153C8.08731 0.0202048 10.1516 2.12636 10.1305 4.65486ZM7.76989 4.65263C7.77877 3.40454 6.77658 2.37932 5.53356 2.3626C4.26279 2.34589 3.23063 3.36219 3.2273 4.63368C3.22397 5.90295 4.20619 6.91591 5.45143 6.92817C6.75993 6.94042 7.76101 5.95755 7.76989 4.65263Z" fill="white"/>
</svg>
