<svg width="18" height="11" viewBox="0 0 18 11" fill="none" xmlns="http://www.w3.org/2000/svg">
<path d="M17.9045 9.93421C17.8827 9.8839 17.8624 9.84216 17.8435 9.80873C17.5312 9.20627 16.9345 8.46681 16.0535 7.59011L16.0349 7.57004L16.0256 7.56019L16.0162 7.5501H16.0067C15.6069 7.14187 15.3537 6.86738 15.2477 6.72685C15.0537 6.45915 15.0102 6.18818 15.1163 5.91362C15.1912 5.70618 15.4726 5.2681 15.9597 4.59877C16.216 4.24405 16.419 3.95975 16.5688 3.74556C17.6498 2.20629 18.1185 1.22268 17.9747 0.794338L17.9188 0.69424C17.8813 0.633977 17.7845 0.578847 17.6285 0.52857C17.4721 0.478397 17.2722 0.4701 17.0285 0.503537L14.3295 0.523507C14.2858 0.506912 14.2233 0.508458 14.142 0.52857C14.0607 0.548681 14.0201 0.558772 14.0201 0.558772L13.9731 0.58391L13.9358 0.614112C13.9046 0.634082 13.8702 0.669207 13.8327 0.719414C13.7954 0.769445 13.7642 0.828161 13.7392 0.895069C13.4454 1.70482 13.1113 2.45768 12.7363 3.15362C12.5051 3.56861 12.2928 3.92825 12.0989 4.23276C11.9053 4.53717 11.7428 4.76145 11.6117 4.90522C11.4804 5.04912 11.3619 5.16441 11.2555 5.2515C11.1492 5.33862 11.0681 5.37544 11.012 5.36197C10.9557 5.3485 10.9027 5.33514 10.8525 5.32178C10.7651 5.26152 10.6947 5.17956 10.6417 5.07584C10.5885 4.97213 10.5526 4.84158 10.5339 4.68431C10.5153 4.52694 10.5042 4.39158 10.5011 4.27777C10.4982 4.1641 10.4995 4.00331 10.5058 3.79588C10.5123 3.58833 10.5153 3.44791 10.5153 3.37428C10.5153 3.11994 10.5199 2.84391 10.5292 2.54611C10.5386 2.24831 10.5463 2.01236 10.5527 1.83853C10.559 1.66453 10.562 1.48043 10.562 1.28636C10.562 1.09228 10.551 0.940072 10.5292 0.829602C10.5076 0.719273 10.4746 0.612178 10.431 0.508353C10.3872 0.404634 10.3231 0.3244 10.2389 0.267443C10.1546 0.210555 10.0497 0.165411 9.92496 0.131869C9.59379 0.0516004 9.17208 0.00817886 8.65965 0.0014283C7.4976 -0.0119322 6.75093 0.0684415 6.41979 0.242444C6.28859 0.315962 6.16986 0.416412 6.0637 0.543477C5.95121 0.690759 5.93552 0.771133 6.01673 0.784353C6.39166 0.84451 6.65708 0.988416 6.8133 1.21593L6.86959 1.33649C6.91338 1.42348 6.9571 1.57747 7.00086 1.79827C7.04455 2.01907 7.07275 2.26332 7.08516 2.53088C7.11634 3.01949 7.11634 3.43774 7.08516 3.78568C7.05387 4.13376 7.02433 4.40473 6.99613 4.59881C6.96794 4.79288 6.92579 4.95015 6.86959 5.07057C6.8133 5.19103 6.77584 5.26465 6.75707 5.29137C6.73832 5.31809 6.7227 5.33493 6.71029 5.34154C6.62908 5.37487 6.54462 5.39186 6.45721 5.39186C6.36966 5.39186 6.26351 5.34495 6.13857 5.25122C6.01367 5.15748 5.88405 5.02873 5.74969 4.86475C5.61534 4.70073 5.46382 4.47153 5.29507 4.17711C5.12644 3.88268 4.95148 3.53471 4.77029 3.1332L4.62038 2.84201C4.52666 2.65468 4.39864 2.38191 4.23619 2.02396C4.07364 1.66586 3.92996 1.31947 3.80506 0.984865C3.75514 0.844334 3.68013 0.737345 3.58018 0.663722L3.53327 0.63352C3.50209 0.606799 3.45203 0.578425 3.38336 0.548188C3.31459 0.517987 3.24283 0.496328 3.1678 0.483003L0.599913 0.502974C0.337509 0.502974 0.159465 0.566647 0.0657161 0.693817L0.0281968 0.753975C0.00945366 0.787481 0 0.840994 0 0.914652C0 0.988276 0.0187432 1.07863 0.0562624 1.18562C0.431126 2.1293 0.838782 3.03939 1.27923 3.91605C1.71968 4.79271 2.10242 5.49888 2.42723 6.03393C2.7521 6.56937 3.08324 7.07471 3.42065 7.54971C3.75806 8.02489 3.9814 8.3294 4.09068 8.46318C4.20008 8.59721 4.28602 8.69741 4.34849 8.76432L4.58282 9.0052C4.73277 9.16584 4.95296 9.35823 5.2435 9.58237C5.5341 9.80665 5.85582 10.0274 6.20882 10.2451C6.56189 10.4624 6.97263 10.6398 7.44128 10.7769C7.90986 10.9142 8.36593 10.9693 8.80956 10.9427H9.88734C10.1059 10.9225 10.2715 10.8489 10.3841 10.7218L10.4214 10.6715C10.4465 10.6316 10.4699 10.5695 10.4916 10.486C10.5135 10.4024 10.5244 10.3102 10.5244 10.21C10.518 9.92229 10.5385 9.66299 10.5852 9.43214C10.6319 9.20135 10.6852 9.02735 10.7447 8.91016C10.8042 8.79308 10.8714 8.69429 10.9461 8.61419C11.021 8.53392 11.0744 8.4853 11.1057 8.46856C11.1368 8.45172 11.1617 8.4403 11.1804 8.43344C11.3304 8.37993 11.5068 8.43175 11.7101 8.58916C11.9132 8.74643 12.1037 8.94061 12.2818 9.17139C12.4599 9.40239 12.6739 9.66155 12.9237 9.94926C13.1738 10.2371 13.3924 10.451 13.5798 10.5918L13.7671 10.7122C13.8922 10.7926 14.0547 10.8662 14.2547 10.9331C14.4543 11 14.6292 11.0167 14.7793 10.9833L17.1784 10.9432C17.4157 10.9432 17.6004 10.9011 17.7314 10.8176C17.8626 10.734 17.9405 10.6418 17.9657 10.5416C17.9908 10.4412 17.9921 10.3274 17.9704 10.2001C17.9482 10.0732 17.9263 9.98438 17.9045 9.93421Z" fill="white"/>
</svg>
